<svg xmlns="http://www.w3.org/2000/svg" viewBox="0 0 480 360" width="480" height="360" role="img" aria-label="EXTINGUISHER">
  <defs>
    <linearGradient id="bg" x1="0" y1="0" x2="1" y2="1">
      <stop offset="0" stop-color="#ffffff"/><stop offset="1" stop-color="#fff1ef"/>
    </linearGradient>
    <radialGradient id="glow" cx="50%" cy="44%" r="58%">
      <stop offset="0" stop-color="#e02a1e" stop-opacity=".10"/>
      <stop offset="1" stop-color="#e02a1e" stop-opacity="0"/>
    </radialGradient>
    <pattern id="grid" width="24" height="24" patternUnits="userSpaceOnUse">
      <path d="M24 0H0v24" fill="none" stroke="#c01a10" stroke-opacity=".07" stroke-width="1"/>
    </pattern>
    <pattern id="hz" width="28" height="28" patternUnits="userSpaceOnUse" patternTransform="rotate(-45)">
      <rect width="14" height="28" fill="#e02a1e" fill-opacity=".85"/>
      <rect x="14" width="14" height="28" fill="#ffffff"/>
    </pattern>
  </defs>
  <rect width="480" height="360" fill="url(#bg)"/>
  <rect width="480" height="360" fill="url(#grid)"/>
  <rect width="480" height="360" fill="url(#glow)"/>
  <rect y="0" width="480" height="8" fill="url(#hz)"/>
  <rect y="352" width="480" height="8" fill="url(#hz)"/>
  <g fill="none" stroke="#c01a10" stroke-width="3" stroke-linecap="round" stroke-linejoin="round" stroke-opacity=".62">
    <rect x="202" y="118" width="76" height="140" rx="18"/>
    <path d="M220 118V100h40v18"/>
    <path d="M228 100V88h24v12" stroke-opacity=".45"/>
    <path d="M260 108h26c11 0 17 8 17 18v16" stroke-opacity=".45"/>
    <path d="M303 142c0 13-10 19-10 32v22" stroke-opacity=".35"/>
    <path d="M210 160h60M210 192h60" stroke-opacity=".25"/>
    <rect x="215" y="210" width="50" height="30" rx="4" stroke-opacity=".3"/>
  </g>
  <g font-family="ui-monospace, SFMono-Regular, Menlo, monospace" font-size="11"
     fill="#99120a" fill-opacity=".5" letter-spacing="2">
    <text x="24" y="334">EXTINGUISHER</text>
    <text x="456" y="334" text-anchor="end">NIROOXEN</text>
  </g>
</svg>
