<svg xmlns="http://www.w3.org/2000/svg" viewBox="0 0 480 360" width="480" height="360" role="img" aria-label="PIPE FITTING">
  <defs>
    <linearGradient id="bg-g4" x1="0" y1="0" x2="1" y2="1">
      <stop offset="0" stop-color="#0b1220"/>
      <stop offset="1" stop-color="#050910"/>
    </linearGradient>
    <radialGradient id="glow-g4" cx="50%" cy="42%" r="58%">
      <stop offset="0" stop-color="#22bcd6" stop-opacity=".2"/>
      <stop offset="1" stop-color="#22bcd6" stop-opacity="0"/>
    </radialGradient>
    <pattern id="grid-g4" width="24" height="24" patternUnits="userSpaceOnUse">
      <path d="M24 0H0v24" fill="none" stroke="#ffffff" stroke-opacity=".045" stroke-width="1"/>
    </pattern>
  </defs>
  <rect width="480" height="360" fill="url(#bg-g4)"/>
  <rect width="480" height="360" fill="url(#grid-g4)"/>
  <rect width="480" height="360" fill="url(#glow-g4)"/>
  <g fill="none" stroke="#4fd3e8" stroke-width="2" stroke-linecap="round" stroke-linejoin="round" opacity=".92">
    <path d="M60 130h120a44 44 0 0 1 44 44v52a44 44 0 0 0 44 44h152" />
    <path d="M60 96v68M420 236v68" opacity=".5" />
    <path d="M132 96v68M348 236v68" opacity=".3" />
    <rect x="168" y="112" width="26" height="36" rx="3" />
    <rect x="286" y="252" width="26" height="36" rx="3" />
    <path d="M240 174v52" opacity=".3" stroke-dasharray="4 6" />
  </g>
  <g fill="none" stroke="#22bcd6" stroke-width="1" opacity=".5">
    <path d="M18 18h26M18 18v26M462 18h-26M462 18v26M18 342h26M18 342v-26M462 342h-26M462 342v-26"/>
  </g>
  <text x="24" y="348" fill="#4fd3e8" fill-opacity=".55" font-family="ui-monospace, monospace" font-size="11" letter-spacing="2">PIPE FITTING</text>
</svg>
