<svg xmlns="http://www.w3.org/2000/svg" viewBox="0 0 480 360" width="480" height="360" role="img" aria-label="VERTICAL WATER TANK">
  <defs>
    <linearGradient id="bg-g9" x1="0" y1="0" x2="1" y2="1">
      <stop offset="0" stop-color="#0b1220"/>
      <stop offset="1" stop-color="#050910"/>
    </linearGradient>
    <radialGradient id="glow-g9" cx="50%" cy="42%" r="58%">
      <stop offset="0" stop-color="#22bcd6" stop-opacity=".2"/>
      <stop offset="1" stop-color="#22bcd6" stop-opacity="0"/>
    </radialGradient>
    <pattern id="grid-g9" width="24" height="24" patternUnits="userSpaceOnUse">
      <path d="M24 0H0v24" fill="none" stroke="#ffffff" stroke-opacity=".045" stroke-width="1"/>
    </pattern>
  </defs>
  <rect width="480" height="360" fill="url(#bg-g9)"/>
  <rect width="480" height="360" fill="url(#grid-g9)"/>
  <rect width="480" height="360" fill="url(#glow-g9)"/>
  <g fill="none" stroke="#4fd3e8" stroke-width="2" stroke-linecap="round" stroke-linejoin="round" opacity=".92">
    <path d="M170 108h140v170a14 14 0 0 1-14 14H184a14 14 0 0 1-14-14z" />
    <ellipse cx="240" cy="108" rx="70" ry="18" />
    <ellipse cx="240" cy="108" rx="26" ry="7" opacity=".6" />
    <path d="M214 101h52" opacity=".6" />
    <path d="M180 150h120M180 190h120M180 230h120" opacity=".28" />
    <path d="M186 292v14h108v-14" opacity=".55" />
    <path d="M340 108v184M334 108h12M334 292h12" opacity=".45" />
    <path d="M170 322h140M170 316v12M310 316v12" opacity=".45" />
  </g>
  <g fill="none" stroke="#22bcd6" stroke-width="1" opacity=".5">
    <path d="M18 18h26M18 18v26M462 18h-26M462 18v26M18 342h26M18 342v-26M462 342h-26M462 342v-26"/>
  </g>
  <text x="24" y="348" fill="#4fd3e8" fill-opacity=".55" font-family="ui-monospace, monospace" font-size="11" letter-spacing="2">VERTICAL WATER TANK</text>
</svg>
