<svg xmlns="http://www.w3.org/2000/svg" viewBox="0 0 480 360" width="480" height="360" role="img" aria-label="FILTRATION UNIT">
  <defs>
    <linearGradient id="bg-g7" x1="0" y1="0" x2="1" y2="1">
      <stop offset="0" stop-color="#0b1220"/>
      <stop offset="1" stop-color="#050910"/>
    </linearGradient>
    <radialGradient id="glow-g7" cx="50%" cy="42%" r="58%">
      <stop offset="0" stop-color="#22bcd6" stop-opacity=".2"/>
      <stop offset="1" stop-color="#22bcd6" stop-opacity="0"/>
    </radialGradient>
    <pattern id="grid-g7" width="24" height="24" patternUnits="userSpaceOnUse">
      <path d="M24 0H0v24" fill="none" stroke="#ffffff" stroke-opacity=".045" stroke-width="1"/>
    </pattern>
  </defs>
  <rect width="480" height="360" fill="url(#bg-g7)"/>
  <rect width="480" height="360" fill="url(#grid-g7)"/>
  <rect width="480" height="360" fill="url(#glow-g7)"/>
  <g fill="none" stroke="#4fd3e8" stroke-width="2" stroke-linecap="round" stroke-linejoin="round" opacity=".92">
    <path d="M150 70h180l-64 84v128l-52-30V154z" />
    <path d="M150 70v-26h180v26" />
    <path d="M198 200h30M198 226h30" opacity=".4" />
    <path d="M266 296v30h-52" opacity=".5" />
    <circle cx="356" cy="140" r="34" opacity=".55" />
    <path d="M356 122v36M338 140h36" opacity=".55" />
    <path d="M90 154h44M90 282h44" opacity=".4" />
  </g>
  <g fill="none" stroke="#22bcd6" stroke-width="1" opacity=".5">
    <path d="M18 18h26M18 18v26M462 18h-26M462 18v26M18 342h26M18 342v-26M462 342h-26M462 342v-26"/>
  </g>
  <text x="24" y="348" fill="#4fd3e8" fill-opacity=".55" font-family="ui-monospace, monospace" font-size="11" letter-spacing="2">FILTRATION UNIT</text>
</svg>
